# xmcd CD database file generated by Grip 3.0.1
# 
# Track frame offsets:
#       183
#       12958
#       25145
#       38095
#       48808
#       61058
#       72883
#       86670
#       98020
#       109358
#       122083
#       136133
#       152095
#       167658
#       180433
#       193645
#       207233
# 
# Disc length: 2927 seconds
# 
# Revision: 1
# Processed by: cddbd v1.4PL0 Copyright (c) Steve Scherf et al.
# Submitted via: Grip 3.0.1
# 
DISCID=d70b6d11
DTITLE=Renzo Arbore - Juke box 2
DYEAR=1990
DGENRE=Blues
TTITLE0=Fred Buongusto - Una rotonda sul mare
TTITLE1=Jinny Fontana - Il mondo
TTITLE2=Dino - Il ballo della bussola
TTITLE3=Dik Dik - Sognando California
TTITLE4=Gianni Meccia - Il pullover
TTITLE5=Fred Buongusto - Amore fermati
TTITLE6=Michele - Dite a Laura che 'amo
TTITLE7=Louiselle - Andiamo a mietere il grano
TTITLE8=Dino - Te lo leggo negli occhi
TTITLE9=Jimmy Fontana - Per vivere insieme
TTITLE10=Gianni Meccia - Il Barattolo
TTITLE11=I Bertas - Fatalità
TTITLE12=Michele - Susan dei marinai
TTITLE13=Blow up - Popcorn
TTITLE14=Nada - Che freddo fa
TTITLE15=Riccardo del turco - Figlio unico
TTITLE16=Michele - Se mi vuoi lasciare
EXTD=
EXTT0=
EXTT1=
EXTT2=
EXTT3=
EXTT4=
EXTT5=
EXTT6=
EXTT7=
EXTT8=
EXTT9=
EXTT10=
EXTT11=
EXTT12=
EXTT13=
EXTT14=
EXTT15=
EXTT16=
PLAYORDER=
